<svg xmlns="http://www.w3.org/2000/svg" viewBox="0 0 1600 900" role="img" aria-labelledby="title desc">
    <title>AI</title>
    <desc>Artwork for AI category</desc>
    <defs>
        <linearGradient id="bg" x1="0" y1="0" x2="1" y2="1">
            <stop offset="0%" stop-color="#3b0764"/>
            <stop offset="55%" stop-color="#c026d3"/>
            <stop offset="100%" stop-color="#f0abfc"/>
        </linearGradient>
        <linearGradient id="overlay" x1="0" y1="0" x2="0" y2="1">
            <stop offset="0%" stop-color="rgba(255,255,255,0)" stop-opacity="0"/>
            <stop offset="100%" stop-color="#000000" stop-opacity="0.28"/>
        </linearGradient>
        <pattern id="grid" width="48" height="48" patternUnits="userSpaceOnUse">
            <path d="M 48 0 L 0 0 0 48" fill="none" stroke="#ffffff" stroke-opacity="0.10" stroke-width="1"/>
        </pattern>
        <filter id="shadow" x="-20%" y="-20%" width="140%" height="140%">
            <feDropShadow dx="0" dy="18" stdDeviation="22" flood-color="#000000" flood-opacity="0.25"/>
        </filter>
    </defs>
    <rect width="1600" height="900" fill="url(#bg)"/>
    <rect width="1600" height="900" fill="url(#grid)"/>
    <g opacity="0.22">
        <circle cx="220" cy="180" r="150" fill="#ffffff"/>
        <circle cx="1440" cy="120" r="110" fill="#ffffff"/>
        <circle cx="1360" cy="760" r="180" fill="#ffffff"/>
    </g>
    <path d="M0,780 C260,620 420,680 720,720 C1040,765 1220,650 1600,540 L1600,900 L0,900 Z" fill="#000000" fill-opacity="0.18"/>
    <g filter="url(#shadow)">
        <g opacity="0.95" fill="none" stroke="#ffffff" stroke-width="16" stroke-linecap="round" stroke-linejoin="round">
            <path d="M 1132.0 245.0 q -110 -20 -140 80 q -90 5 -95 95 q -10 85 65 120 q 15 85 100 90 q 40 55 110 35"/>
            <path d="M 1172.0 245.0 q 110 -20 140 80 q 90 5 95 95 q 10 85 -65 120 q -15 85 -100 90 q -40 55 -110 35"/>
            <path d="M 1152.0 245.0 L 1152.0 575.0" opacity="0.7"/>
            <path d="M 1092.0 330.0 q 50 20 30 80 q -10 50 30 90" opacity="0.8"/>
            <path d="M 1212.0 330.0 q -50 20 -30 80 q 10 50 -30 90" opacity="0.8"/>
            <path d="M 1037.0 420.0 q 55 20 70 65" opacity="0.65"/>
            <path d="M 1267.0 420.0 q -55 20 -70 65" opacity="0.65"/>
        </g></g>
    <g opacity="0.16" fill="#ffffff">
      <rect x="120" y="130" width="260" height="18" rx="9"/>
      <rect x="120" y="170" width="180" height="18" rx="9"/>
      <rect x="120" y="210" width="220" height="18" rx="9"/>
    </g>
    </svg>