<svg xmlns="http://www.w3.org/2000/svg" viewBox="0 0 1600 900" role="img" aria-labelledby="title desc">
    <title>Beagle Bone Black</title>
    <desc>Artwork for Beagle Bone Black category</desc>
    <defs>
        <linearGradient id="bg" x1="0" y1="0" x2="1" y2="1">
            <stop offset="0%" stop-color="#1f2937"/>
            <stop offset="55%" stop-color="#dc2626"/>
            <stop offset="100%" stop-color="#fca5a5"/>
        </linearGradient>
        <linearGradient id="overlay" x1="0" y1="0" x2="0" y2="1">
            <stop offset="0%" stop-color="rgba(255,255,255,0)" stop-opacity="0"/>
            <stop offset="100%" stop-color="#000000" stop-opacity="0.28"/>
        </linearGradient>
        <pattern id="grid" width="48" height="48" patternUnits="userSpaceOnUse">
            <path d="M 48 0 L 0 0 0 48" fill="none" stroke="#ffffff" stroke-opacity="0.10" stroke-width="1"/>
        </pattern>
        <filter id="shadow" x="-20%" y="-20%" width="140%" height="140%">
            <feDropShadow dx="0" dy="18" stdDeviation="22" flood-color="#000000" flood-opacity="0.25"/>
        </filter>
    </defs>
    <rect width="1600" height="900" fill="url(#bg)"/>
    <rect width="1600" height="900" fill="url(#grid)"/>
    <g opacity="0.22">
        <circle cx="220" cy="180" r="150" fill="#ffffff"/>
        <circle cx="1440" cy="120" r="110" fill="#ffffff"/>
        <circle cx="1360" cy="760" r="180" fill="#ffffff"/>
    </g>
    <path d="M0,780 C260,620 420,680 720,720 C1040,765 1220,650 1600,540 L1600,900 L0,900 Z" fill="#000000" fill-opacity="0.18"/>
    <g filter="url(#shadow)">
        <g opacity="0.95" fill="none" stroke="#ffffff" stroke-width="18" stroke-linecap="round" stroke-linejoin="round">
            <rect x="932.0" y="265.0" rx="26" width="440" height="280"/>
            <circle cx="1012.0" cy="355.0" r="26"/>
            <circle cx="1237.0" cy="455.0" r="26"/>
            <path d="M 1038.0 355.0 L 1212.0 455.0"/>
            <path d="M 1012.0 381.0 L 1012.0 497.0" opacity="0.7"/>
            <path d="M 1237.0 335.0 L 1237.0 429.0" opacity="0.7"/>
            <path d="M 902.0 295.0 L 932.0 295.0"/><path d="M 902.0 340.0 L 932.0 340.0"/><path d="M 902.0 385.0 L 932.0 385.0"/><path d="M 902.0 430.0 L 932.0 430.0"/><path d="M 902.0 475.0 L 932.0 475.0"/><path d="M 902.0 520.0 L 932.0 520.0"/>
            <path d="M 1372.0 295.0 L 1402.0 295.0"/><path d="M 1372.0 340.0 L 1402.0 340.0"/><path d="M 1372.0 385.0 L 1402.0 385.0"/><path d="M 1372.0 430.0 L 1402.0 430.0"/><path d="M 1372.0 475.0 L 1402.0 475.0"/><path d="M 1372.0 520.0 L 1402.0 520.0"/>
        </g></g>
    <g opacity="0.16" fill="#ffffff">
      <rect x="120" y="130" width="260" height="18" rx="9"/>
      <rect x="120" y="170" width="180" height="18" rx="9"/>
      <rect x="120" y="210" width="220" height="18" rx="9"/>
    </g>
    </svg>