<svg xmlns="http://www.w3.org/2000/svg" viewBox="0 0 1600 900" role="img" aria-labelledby="title desc">
    <title>Cloud</title>
    <desc>Artwork for Cloud category</desc>
    <defs>
        <linearGradient id="bg" x1="0" y1="0" x2="1" y2="1">
            <stop offset="0%" stop-color="#334155"/>
            <stop offset="55%" stop-color="#0284c7"/>
            <stop offset="100%" stop-color="#7dd3fc"/>
        </linearGradient>
        <linearGradient id="overlay" x1="0" y1="0" x2="0" y2="1">
            <stop offset="0%" stop-color="rgba(255,255,255,0)" stop-opacity="0"/>
            <stop offset="100%" stop-color="#000000" stop-opacity="0.28"/>
        </linearGradient>
        <pattern id="grid" width="48" height="48" patternUnits="userSpaceOnUse">
            <path d="M 48 0 L 0 0 0 48" fill="none" stroke="#ffffff" stroke-opacity="0.10" stroke-width="1"/>
        </pattern>
        <filter id="shadow" x="-20%" y="-20%" width="140%" height="140%">
            <feDropShadow dx="0" dy="18" stdDeviation="22" flood-color="#000000" flood-opacity="0.25"/>
        </filter>
    </defs>
    <rect width="1600" height="900" fill="url(#bg)"/>
    <rect width="1600" height="900" fill="url(#grid)"/>
    <g opacity="0.22">
        <circle cx="220" cy="180" r="150" fill="#ffffff"/>
        <circle cx="1440" cy="120" r="110" fill="#ffffff"/>
        <circle cx="1360" cy="760" r="180" fill="#ffffff"/>
    </g>
    <path d="M0,780 C260,620 420,680 720,720 C1040,765 1220,650 1600,540 L1600,900 L0,900 Z" fill="#000000" fill-opacity="0.18"/>
    <g filter="url(#shadow)">
        <g opacity="0.95" fill="none" stroke="#ffffff" stroke-width="18" stroke-linecap="round" stroke-linejoin="round">
            <path d="M 972.0 455.0 h 310 a 90 90 0 0 0 0 -180 a 120 120 0 0 0 -225 -25 a 85 85 0 0 0 -85 85 a 120 120 0 0 0 0 120 z"/>
            <path d="M 1102.0 450.0 v 120"/>
            <path d="M 1047.0 520.0 L 1102.0 575.0 L 1157.0 520.0"/>
        </g></g>
    <g opacity="0.16" fill="#ffffff">
      <rect x="120" y="130" width="260" height="18" rx="9"/>
      <rect x="120" y="170" width="180" height="18" rx="9"/>
      <rect x="120" y="210" width="220" height="18" rx="9"/>
    </g>
    </svg>