<svg xmlns="http://www.w3.org/2000/svg" viewBox="0 0 1600 900" role="img" aria-labelledby="title desc">
    <title>Linux Driver</title>
    <desc>Artwork for Linux Driver category</desc>
    <defs>
        <linearGradient id="bg" x1="0" y1="0" x2="1" y2="1">
            <stop offset="0%" stop-color="#374151"/>
            <stop offset="55%" stop-color="#0f766e"/>
            <stop offset="100%" stop-color="#99f6e4"/>
        </linearGradient>
        <linearGradient id="overlay" x1="0" y1="0" x2="0" y2="1">
            <stop offset="0%" stop-color="rgba(255,255,255,0)" stop-opacity="0"/>
            <stop offset="100%" stop-color="#000000" stop-opacity="0.28"/>
        </linearGradient>
        <pattern id="grid" width="48" height="48" patternUnits="userSpaceOnUse">
            <path d="M 48 0 L 0 0 0 48" fill="none" stroke="#ffffff" stroke-opacity="0.10" stroke-width="1"/>
        </pattern>
        <filter id="shadow" x="-20%" y="-20%" width="140%" height="140%">
            <feDropShadow dx="0" dy="18" stdDeviation="22" flood-color="#000000" flood-opacity="0.25"/>
        </filter>
    </defs>
    <rect width="1600" height="900" fill="url(#bg)"/>
    <rect width="1600" height="900" fill="url(#grid)"/>
    <g opacity="0.22">
        <circle cx="220" cy="180" r="150" fill="#ffffff"/>
        <circle cx="1440" cy="120" r="110" fill="#ffffff"/>
        <circle cx="1360" cy="760" r="180" fill="#ffffff"/>
    </g>
    <path d="M0,780 C260,620 420,680 720,720 C1040,765 1220,650 1600,540 L1600,900 L0,900 Z" fill="#000000" fill-opacity="0.18"/>
    <g filter="url(#shadow)">
        <g opacity="0.95" fill="none" stroke="#ffffff" stroke-width="18" stroke-linecap="round" stroke-linejoin="round">
            <rect x="1022.0" y="275.0" rx="26" ry="26" width="260" height="260"/>
            <rect x="1097.0" y="350.0" width="110" height="110" rx="12"/>
            <path d="M 972.0 235.0 L 972.0 275.0"/><path d="M 1002.0 235.0 L 1002.0 275.0"/><path d="M 1032.0 235.0 L 1032.0 275.0"/><path d="M 1062.0 235.0 L 1062.0 275.0"/><path d="M 1092.0 235.0 L 1092.0 275.0"/><path d="M 1122.0 235.0 L 1122.0 275.0"/><path d="M 1152.0 235.0 L 1152.0 275.0"/><path d="M 1182.0 235.0 L 1182.0 275.0"/><path d="M 1212.0 235.0 L 1212.0 275.0"/><path d="M 1242.0 235.0 L 1242.0 275.0"/><path d="M 1272.0 235.0 L 1272.0 275.0"/><path d="M 1302.0 235.0 L 1302.0 275.0"/><path d="M 1332.0 235.0 L 1332.0 275.0"/>
            <path d="M 972.0 535.0 L 972.0 575.0"/><path d="M 1002.0 535.0 L 1002.0 575.0"/><path d="M 1032.0 535.0 L 1032.0 575.0"/><path d="M 1062.0 535.0 L 1062.0 575.0"/><path d="M 1092.0 535.0 L 1092.0 575.0"/><path d="M 1122.0 535.0 L 1122.0 575.0"/><path d="M 1152.0 535.0 L 1152.0 575.0"/><path d="M 1182.0 535.0 L 1182.0 575.0"/><path d="M 1212.0 535.0 L 1212.0 575.0"/><path d="M 1242.0 535.0 L 1242.0 575.0"/><path d="M 1272.0 535.0 L 1272.0 575.0"/><path d="M 1302.0 535.0 L 1302.0 575.0"/><path d="M 1332.0 535.0 L 1332.0 575.0"/>
            <path d="M 982.0 225.0 L 1022.0 225.0"/><path d="M 982.0 255.0 L 1022.0 255.0"/><path d="M 982.0 285.0 L 1022.0 285.0"/><path d="M 982.0 315.0 L 1022.0 315.0"/><path d="M 982.0 345.0 L 1022.0 345.0"/><path d="M 982.0 375.0 L 1022.0 375.0"/><path d="M 982.0 405.0 L 1022.0 405.0"/><path d="M 982.0 435.0 L 1022.0 435.0"/><path d="M 982.0 465.0 L 1022.0 465.0"/><path d="M 982.0 495.0 L 1022.0 495.0"/><path d="M 982.0 525.0 L 1022.0 525.0"/><path d="M 982.0 555.0 L 1022.0 555.0"/><path d="M 982.0 585.0 L 1022.0 585.0"/>
            <path d="M 1282.0 225.0 L 1322.0 225.0"/><path d="M 1282.0 255.0 L 1322.0 255.0"/><path d="M 1282.0 285.0 L 1322.0 285.0"/><path d="M 1282.0 315.0 L 1322.0 315.0"/><path d="M 1282.0 345.0 L 1322.0 345.0"/><path d="M 1282.0 375.0 L 1322.0 375.0"/><path d="M 1282.0 405.0 L 1322.0 405.0"/><path d="M 1282.0 435.0 L 1322.0 435.0"/><path d="M 1282.0 465.0 L 1322.0 465.0"/><path d="M 1282.0 495.0 L 1322.0 495.0"/><path d="M 1282.0 525.0 L 1322.0 525.0"/><path d="M 1282.0 555.0 L 1322.0 555.0"/><path d="M 1282.0 585.0 L 1322.0 585.0"/>
        </g></g>
    <g opacity="0.16" fill="#ffffff">
      <rect x="120" y="130" width="260" height="18" rx="9"/>
      <rect x="120" y="170" width="180" height="18" rx="9"/>
      <rect x="120" y="210" width="220" height="18" rx="9"/>
    </g>
    </svg>